<?xml version="1.0" encoding="UTF-8" standalone="no"?>
<!-- Created with Inkscape (http://www.inkscape.org/) -->

<svg
   xmlns:dc="http://purl.org/dc/elements/1.1/"
   xmlns:cc="http://creativecommons.org/ns#"
   xmlns:rdf="http://www.w3.org/1999/02/22-rdf-syntax-ns#"
   xmlns:svg="http://www.w3.org/2000/svg"
   xmlns="http://www.w3.org/2000/svg"
   xmlns:sodipodi="http://sodipodi.sourceforge.net/DTD/sodipodi-0.dtd"
   xmlns:inkscape="http://www.inkscape.org/namespaces/inkscape"
   width="18.284597mm"
   height="18.476189mm"
   viewBox="0 0 18.284597 18.476189"
   version="1.1"
   id="svg8"
   inkscape:version="0.92.2 (5c3e80d, 2017-08-06)"
   sodipodi:docname="logo-1.svg">
  <defs
     id="defs2">
    <mask
       maskUnits="userSpaceOnUse"
       id="mask881">
      <text
         xml:space="preserve"
         style="font-style:normal;font-weight:normal;font-size:10.58333302px;line-height:1.25;font-family:sans-serif;letter-spacing:0px;word-spacing:0px;fill:#ffffff;fill-opacity:1;stroke:none;stroke-width:0.26458332"
         x="-124.17297"
         y="74.589394"
         id="text885"
         transform="rotate(-90)"><tspan
           sodipodi:role="line"
           id="tspan883"
           x="-124.17297"
           y="74.589394"
           style="fill:#ffffff;fill-opacity:1;stroke-width:0.26458332">{ </tspan></text>
    </mask>
  </defs>
  <sodipodi:namedview
     id="base"
     pagecolor="#ffffff"
     bordercolor="#666666"
     borderopacity="1.0"
     inkscape:pageopacity="0.0"
     inkscape:pageshadow="2"
     inkscape:zoom="5.6"
     inkscape:cx="29.316527"
     inkscape:cy="0.094716821"
     inkscape:document-units="mm"
     inkscape:current-layer="layer1"
     showgrid="false"
     inkscape:snap-global="false"
     inkscape:window-width="1920"
     inkscape:window-height="1027"
     inkscape:window-x="0"
     inkscape:window-y="0"
     inkscape:window-maximized="1"
     fit-margin-top="0"
     fit-margin-left="0"
     fit-margin-right="0"
     fit-margin-bottom="0" />
  <metadata
     id="metadata5">
    <rdf:RDF>
      <cc:Work
         rdf:about="">
        <dc:format>image/svg+xml</dc:format>
        <dc:type
           rdf:resource="http://purl.org/dc/dcmitype/StillImage" />
        <dc:title></dc:title>
      </cc:Work>
    </rdf:RDF>
  </metadata>
  <g
     inkscape:label="Layer 1"
     inkscape:groupmode="layer"
     id="layer1"
     transform="translate(-62.224339,-104.37387)">
    <circle
       style="opacity:1;fill:#ff6943;fill-opacity:1;stroke:none;stroke-width:0.52916664;stroke-miterlimit:4;stroke-dasharray:none"
       id="path845"
       cx="71.366638"
       cy="113.51617"
       r="9.1422987" />
    <path
       inkscape:connector-curvature="0"
       id="path819"
       style="font-style:normal;font-variant:normal;font-weight:bold;font-stretch:normal;font-size:medium;line-height:1.25;font-family:'Open Sans';-inkscape-font-specification:'Open Sans Bold';letter-spacing:0px;word-spacing:0px;fill:#ffffff;fill-opacity:1;stroke:none;stroke-width:0.26458332"
       d="m 71.320859,109.96895 q 1.023193,0 1.60197,0.80099 0.578776,0.79581 0.578776,2.18591 0,1.43144 -0.599447,2.21692 -0.594279,0.78548 -1.62264,0.78548 -1.018026,0 -1.596802,-0.73897 h -0.10852 l -0.26355,0.63562 h -1.204061 v -8.04086 h 1.576131 v 1.87069 q 0,0.35657 -0.06201,1.14205 h 0.06201 q 0.552938,-0.85783 1.638143,-0.85783 z m -0.506429,1.26091 q -0.583944,0 -0.852661,0.36173 -0.268717,0.35657 -0.279053,1.18339 v 0.17053 q 0,0.93018 0.273885,1.33326 0.279053,0.40307 0.8785,0.40307 0.485758,0 0.769979,-0.44442 0.289388,-0.44958 0.289388,-1.30224 0,-0.85266 -0.289388,-1.27641 -0.289388,-0.42891 -0.79065,-0.42891 z" />
    <path
       inkscape:connector-curvature="0"
       id="path821"
       style="font-style:normal;font-variant:normal;font-weight:bold;font-stretch:normal;font-size:medium;line-height:1.25;font-family:'Open Sans';-inkscape-font-specification:'Open Sans Bold';letter-spacing:0px;word-spacing:0px;fill:#ffffff;fill-opacity:1;stroke:none;stroke-width:0.30163318"
       d="m 75.609093,115.94614 h -1.555296 v 5.23734 h -1.796838 v -5.23734 h -0.989734 v -0.86602 l 0.989734,-0.48308 v -0.48309 q 0,-1.12522 0.55378,-1.64367 0.553779,-0.51842 1.773273,-0.51842 0.930821,0 1.655448,0.27689 l -0.459519,1.31964 q -0.541997,-0.17085 -1.001516,-0.17085 -0.382933,0 -0.553781,0.22977 -0.170847,0.22386 -0.170847,0.57734 v 0.41239 h 1.555296 z" />
    <text
       transform="rotate(-90)"
       id="text843"
       y="71.222237"
       x="-121.06042"
       style="font-style:normal;font-weight:normal;font-size:4.58187866px;line-height:1.25;font-family:sans-serif;letter-spacing:0px;word-spacing:0px;fill:#ffffff;fill-opacity:1;stroke:none;stroke-width:0.11454697"
       xml:space="preserve"><tspan
         style="fill:#ffffff;fill-opacity:1;stroke-width:0.11454697"
         y="71.222237"
         x="-121.06042"
         id="tspan841"
         sodipodi:role="line">{ </tspan></text>
    <circle
       r="9.1422987"
       cy="113.51617"
       cx="71.366638"
       id="circle879"
       style="opacity:1;fill:#ffffff;fill-opacity:1;stroke:none;stroke-width:0.52916664;stroke-miterlimit:4;stroke-dasharray:none"
       mask="url(#mask881)" />
  </g>
</svg>
